<svg width="159" height="34" viewBox="0 0 159 34" fill="none" xmlns="http://www.w3.org/2000/svg">
<path d="M151.129 21.8271C151.129 21.0883 151.667 20.551 152.473 20.551C153.28 20.551 153.818 21.0883 153.818 21.8271C153.818 22.5658 153.28 23.1031 152.473 23.1031C151.667 23.1031 151.129 22.5658 151.129 21.8271Z" fill="#ADADAD"/>
<path d="M134.388 28.3408V30.0198C134.388 30.0198 134.388 30.1542 134.254 30.1542H132.775C132.775 30.1542 132.641 30.1542 132.641 30.0198V28.3408L130.893 25.3858C130.893 25.3186 130.893 25.2515 130.96 25.2515H132.506H132.573L133.447 26.7962C133.447 26.7962 133.582 26.7962 133.649 26.7962L134.523 25.2515C134.523 25.2515 134.523 25.2515 134.59 25.2515H136.002C136.069 25.2515 136.136 25.3186 136.069 25.3858L134.321 28.3408H134.388Z" fill="#ADADAD"/>
<path d="M140.44 29.0801V29.9532C140.44 29.9532 140.44 30.0204 140.373 30.0204H136.608C136.608 30.0204 136.541 30.0204 136.541 29.9532V25.1848C136.541 25.1848 136.541 25.1177 136.608 25.1177H140.306C140.306 25.1177 140.373 25.1177 140.373 25.1848V26.0579C140.373 26.0579 140.373 26.1251 140.306 26.1251H138.02C138.02 26.1251 137.953 26.1251 137.953 26.1922V26.8638C137.953 26.8638 137.953 26.931 138.02 26.931H140.037C140.037 26.931 140.104 26.931 140.104 26.9982V27.8712C140.104 27.8712 140.104 27.9384 140.037 27.9384H138.02C138.02 27.9384 137.953 27.9384 137.953 28.0056V28.7443C137.953 28.7443 137.953 28.8115 138.02 28.8115H140.44C140.44 28.8115 140.507 28.8115 140.507 28.8786L140.44 29.0801Z" fill="#ADADAD"/>
<path d="M144.472 29.1473H142.523H142.455L142.119 30.0204C142.119 30.0204 142.119 30.0204 142.052 30.0204H140.842C140.842 30.0204 140.707 29.9532 140.775 29.8861L142.859 25.1177C142.859 25.1177 142.859 25.1177 142.926 25.1177H144.203H144.271L146.355 29.8861C146.355 29.8861 146.355 30.0204 146.287 30.0204H145.01H144.943L144.607 29.1473C144.607 29.1473 144.607 29.1473 144.539 29.1473H144.472ZM144.069 27.9384L143.598 26.7295C143.598 26.6624 143.464 26.6624 143.397 26.7295L142.926 27.9384C142.926 27.9384 142.926 28.0727 142.993 28.0727H144.002C144.002 28.0727 144.136 28.0727 144.069 27.9384Z" fill="#ADADAD"/>
<path d="M148.909 28.7443H148.304C148.304 28.7443 148.237 28.7443 148.237 28.8115V29.9532C148.237 29.9532 148.237 30.0204 148.17 30.0204H146.96C146.96 30.0204 146.893 30.0204 146.893 29.9532V25.1848C146.893 25.1848 146.893 25.1177 146.96 25.1177H149.111C150.456 25.1177 151.33 25.7893 151.33 26.931C151.33 28.0727 150.994 28.1399 150.456 28.4757C150.456 28.4757 150.456 28.5428 150.456 28.61L151.397 29.9532C151.397 29.9532 151.397 30.0875 151.33 30.0875H150.052C150.052 30.0875 150.052 30.0875 149.985 30.0875L149.111 28.8786C149.111 28.8786 149.111 28.8786 149.044 28.8786L148.909 28.7443ZM148.977 26.2594H148.304C148.304 26.2594 148.237 26.2594 148.237 26.3266V27.6026C148.237 27.6026 148.237 27.6698 148.304 27.6698H148.977C149.582 27.6698 149.851 27.4011 149.851 26.931C149.851 26.4609 149.582 26.1922 148.977 26.1922V26.2594Z" fill="#ADADAD"/>
<path fill-rule="evenodd" clip-rule="evenodd" d="M134.39 12.4916C135.466 12.4916 136.542 12.7602 137.483 13.3646C137.752 13.5661 137.953 13.7676 138.222 13.9691C138.895 14.6407 139.432 15.5138 139.634 16.5212C139.769 17.5286 140.239 18.4017 140.979 19.1404C141.853 20.0135 143.063 20.5508 144.34 20.5508C145.617 20.5508 146.828 20.0807 147.702 19.1404C148.575 18.2673 149.113 17.0584 149.113 15.7824C149.113 14.5064 148.643 13.2975 147.702 12.4244C146.828 11.5513 145.617 11.014 144.34 11.014C143.063 11.014 141.853 11.4841 140.979 12.4244C140.374 13.0288 139.903 13.8348 139.701 14.7078C139.231 13.9019 138.558 13.1632 137.684 12.693C138.021 11.9543 138.558 11.2155 139.164 10.6111C140.575 9.2007 142.39 8.46194 144.34 8.46194C146.29 8.46194 148.172 9.2007 149.517 10.6111C150.928 12.0214 151.668 13.8348 151.668 15.7824C151.668 17.73 150.928 19.6105 149.517 20.9537C148.105 22.3641 146.29 23.1029 144.34 23.1029C142.39 23.1029 140.508 22.3641 139.164 20.9537C138.155 19.9463 137.416 18.6031 137.147 17.1928C137.012 16.6555 136.811 16.1854 136.407 15.8496C135.331 14.775 133.516 14.775 132.508 15.8496C132.441 15.9167 132.306 16.051 132.239 16.1854C132.239 16.2525 132.172 16.3197 132.105 16.3868C131.836 16.857 131.768 17.3271 131.768 17.7972C131.768 18.536 132.037 19.2076 132.575 19.6777C133.651 20.7523 135.466 20.7523 136.474 19.6777C137.483 18.6031 136.878 19.1404 137.012 18.8718C137.281 19.812 137.819 20.6179 138.558 21.2224C138.491 21.2895 138.357 21.4239 138.29 21.491C136.205 23.573 132.777 23.573 130.693 21.491C129.684 20.4836 129.146 19.2076 129.146 17.7972C129.146 16.857 129.348 15.9167 129.819 15.1108L133.718 8.39478H136.676L134.323 12.4244L134.39 12.4916Z" fill="#ADADAD"/>
<path fill-rule="evenodd" clip-rule="evenodd" d="M5.78361 15.7814C5.78361 15.7814 5.11133 15.7814 5.11133 15.1769V3.82685C5.11133 3.82685 5.11133 3.22241 5.78361 3.22241H10.2879C10.2879 3.22241 12.6409 3.22241 14.725 4.09549C14.9267 4.16266 16.5402 4.90142 17.4141 6.58042C17.4814 6.71474 18.1536 7.85647 18.1536 9.73696C18.1536 9.87128 18.1536 11.416 17.4814 12.6248C17.4814 12.6248 16.7418 13.9681 15.3973 14.774C15.2628 14.8411 13.9183 15.7814 11.6325 15.7814C11.4308 15.7814 5.85084 15.7814 5.85084 15.7814M12.1703 11.6174C13.246 11.013 13.1787 9.73695 13.246 9.66979C13.246 8.25943 12.4392 7.78931 12.372 7.72215C11.5653 7.18487 10.3551 7.18487 10.3551 7.18487C10.0862 7.18487 10.0862 7.45351 10.0862 7.45351V11.8189C10.0862 12.0204 10.3551 12.0204 10.3551 12.0204C11.6997 12.0204 12.1703 11.6846 12.2375 11.6174" fill="#ADADAD"/>
<path fill-rule="evenodd" clip-rule="evenodd" d="M32.2715 3.82685C32.2715 3.82685 32.2715 3.22241 32.9438 3.22241H36.5741C36.5741 3.22241 37.2464 3.22241 37.2464 3.82685V11.1473C37.2464 11.1473 37.2464 11.7518 37.9187 11.7518H40.7423C40.7423 11.7518 41.4146 11.7518 41.4146 12.3562V15.1769C41.4146 15.1769 41.4146 15.7814 40.7423 15.7814H33.011C33.011 15.7814 32.3387 15.7814 32.3387 15.1769V3.82685H32.2715Z" fill="#ADADAD"/>
<path fill-rule="evenodd" clip-rule="evenodd" d="M55.8699 8.39475H49.6176C49.0126 8.39475 48.9454 8.99919 48.9454 8.99919V11.3498H50.895C51.0967 11.3498 51.0294 11.5513 51.0294 11.6184C50.4244 12.4915 49.147 12.4915 49.0126 12.4915C47.668 12.4915 47.063 11.3498 46.9957 11.2826C46.5924 10.5439 46.5924 9.73795 46.5924 9.67079C46.6596 8.46191 47.3319 7.79031 47.3991 7.72315C48.2731 6.91722 49.2143 6.98438 49.2815 6.98438C50.1555 6.98438 50.6933 7.45451 50.7605 7.52167C51.0967 7.92463 51.7017 7.72315 51.7017 7.72315C51.7017 7.72315 55.5337 6.37994 55.6682 6.37994C55.0631 5.03674 53.3152 4.23081 53.248 4.16365C52.3068 3.69353 51.3656 3.49205 51.2311 3.42489C50.0882 3.15625 49.0126 3.15625 48.8109 3.15625C47.6008 3.15625 46.6596 3.42489 46.5251 3.49205C44.9116 3.89501 43.7688 4.90242 43.6343 5.03674C42.6259 5.97698 42.2225 6.98438 42.1553 7.11871C41.5502 8.46191 41.6175 9.80511 41.6175 9.93944C41.6175 11.1483 41.9536 11.8871 42.0208 12.0214C42.4914 13.2303 43.3654 14.1034 43.4998 14.1705C44.71 15.2451 45.9873 15.6481 46.189 15.6481C47.7352 16.1182 49.147 16.051 49.2815 16.051C51.0294 16.051 52.374 15.3794 52.5085 15.3123C53.4497 14.9093 54.2564 14.2377 54.3909 14.1705C55.1304 13.5661 55.601 12.7602 55.6682 12.6258C56.2733 11.4841 56.3405 10.1409 56.3405 10.1409V9.06635C56.3405 9.13351 56.3405 8.46191 55.7354 8.46191" fill="#ADADAD"/>
<path fill-rule="evenodd" clip-rule="evenodd" d="M83.2299 3.22241C83.2299 3.22241 83.7005 3.42389 83.4316 3.82685C83.3644 3.96117 79.8685 8.99819 79.8685 8.99819C79.8685 8.99819 79.5996 9.26683 79.8685 9.60263C79.8685 9.6698 83.9022 15.1769 83.9022 15.1769C83.9022 15.1769 84.3056 15.7814 83.7005 15.7814H79.1962C79.1962 15.7814 78.6584 15.7814 78.255 15.1769C78.1878 15.0426 75.4987 10.5429 75.4987 10.5429C75.4987 10.5429 75.4987 10.4757 75.3642 10.5429V15.1769C75.4314 15.1769 75.4314 15.7814 74.8264 15.7814H71.3305C71.3305 15.7814 70.6582 15.7814 70.6582 15.1769V3.82685C70.6582 3.82685 70.6582 3.22241 71.3305 3.22241H74.8264C74.8264 3.22241 75.4314 3.22241 75.4314 3.82685C75.4314 4.02833 75.3642 8.59523 75.3642 8.59523C75.3642 8.59523 75.4314 8.72955 75.4987 8.59523C75.4987 8.52807 76.4398 6.7819 76.4398 6.7819L78.1878 3.82685C78.1878 3.82685 78.5912 3.22241 79.1962 3.22241H83.2299Z" fill="#ADADAD"/>
<path fill-rule="evenodd" clip-rule="evenodd" d="M89.4139 15.7814C89.4139 15.7814 90.0862 15.7814 90.0862 15.1769V3.82685C90.0862 3.82685 90.0862 3.22241 89.4139 3.22241H85.7836C85.7836 3.22241 85.1113 3.22241 85.1113 3.82685V15.1769C85.1113 15.1769 85.1113 15.7814 85.7836 15.7814H89.4139Z" fill="#ADADAD"/>
<path fill-rule="evenodd" clip-rule="evenodd" d="M92.5774 3.22241H97.8884C97.8884 3.22241 99.9053 3.22241 101.317 3.96117C101.452 3.96117 102.527 4.56562 102.998 5.64018C102.998 5.70734 103.401 6.51326 103.401 7.58783C103.401 7.65499 103.401 8.59523 103.065 9.19967C103.065 9.33399 102.594 10.2742 100.914 10.8115C100.914 10.8115 100.712 10.8115 100.846 11.013C100.846 11.013 101.384 11.3488 101.653 11.7518L104.141 15.1769C104.141 15.1769 104.679 15.8485 103.939 15.7814H99.5692C99.5692 15.7814 98.8969 15.7814 98.628 15.1769C98.628 15.0426 96.8128 11.8189 96.8128 11.8189H96.6783V15.1769C96.6783 15.1769 96.6783 15.7814 96.0061 15.7814H92.5102C92.5102 15.7814 91.8379 15.7814 91.8379 15.1769V3.82685C91.8379 3.82685 91.8379 3.22241 92.5102 3.22241M96.7456 8.66239C96.7456 8.79671 97.0145 8.79671 97.0145 8.79671H97.2162C97.8212 8.79671 98.0901 8.66239 98.1574 8.66239C98.4935 8.52807 98.628 8.25943 98.628 8.25943C98.6952 8.05795 98.6952 7.72215 98.6952 7.72215C98.6952 7.38635 98.4935 7.11771 98.4935 7.11771C98.359 6.91623 98.0229 6.78191 98.0229 6.78191C97.6868 6.64758 97.0145 6.71474 96.88 6.71474C96.7456 6.71474 96.7456 6.84907 96.7456 6.84907V8.72955V8.66239Z" fill="#ADADAD"/>
<path fill-rule="evenodd" clip-rule="evenodd" d="M127.803 9.40115C125.584 6.04314 124.239 3.62537 124.239 3.62537C124.239 3.55821 124.105 3.42389 123.97 3.35673C123.836 3.28957 123.702 3.22241 123.567 3.22241C122.29 3.22241 121.08 3.22241 119.802 3.22241C119.197 3.22241 119.197 3.82685 119.197 3.82685V15.1769C119.197 15.7814 119.802 15.7814 119.802 15.7814H123.231C123.836 15.7814 123.836 15.1769 123.836 15.1769V9.73696C123.836 9.73696 123.836 9.60263 124.038 9.73696C124.038 9.73696 127.197 14.5725 127.601 15.1769C128.004 15.7814 128.542 15.7814 128.542 15.7814C129.954 13.3636 131.433 10.8787 132.845 8.46091C132.845 6.91623 132.71 5.37154 132.71 3.82685C132.71 3.22241 132.038 3.22241 132.038 3.22241H128.542C128.004 3.22241 128.004 3.82685 128.004 3.82685V9.40115C128.004 9.40115 128.004 9.46831 127.87 9.46831C127.87 9.46831 127.803 9.46831 127.735 9.40115H127.803Z" fill="#ADADAD"/>
<path fill-rule="evenodd" clip-rule="evenodd" d="M18.0183 15.7814C18.0183 15.7814 17.4133 15.7814 17.6822 15.1769C17.6822 15.0426 18.22 13.8337 18.22 13.8337L22.1865 3.82685C22.1865 3.82685 22.4554 3.22241 23.0605 3.22241H25.884C25.884 3.22241 26.6236 3.22241 26.5563 3.82685C26.5563 3.96117 26.0857 5.1029 26.0857 5.1029L22.4554 15.1769C22.4554 15.1769 22.2537 15.7814 21.5814 15.7814H18.0855" fill="#ADADAD"/>
<path fill-rule="evenodd" clip-rule="evenodd" d="M30.859 15.2452C30.859 15.2452 31.0607 15.7825 30.4556 15.7825C29.8506 15.7825 23.8 15.7825 23.8 15.7825C23.8 15.7825 23.1949 15.7825 23.3966 15.2452C23.5983 14.7079 26.7581 5.84278 26.7581 5.84278C26.7581 5.84278 27.027 5.57414 27.3631 5.84278C27.3631 5.97711 30.7918 15.2452 30.7918 15.2452" fill="#ADADAD"/>
<path fill-rule="evenodd" clip-rule="evenodd" d="M56.6101 15.7814C56.6101 15.7814 56.0051 15.7814 56.274 15.1769C56.274 15.0426 56.8118 13.8337 56.8118 13.8337L60.7783 3.82685C60.7783 3.82685 61.0472 3.22241 61.6522 3.22241H64.4758C64.4758 3.22241 65.2154 3.22241 65.1481 3.82685C65.1481 3.96117 64.6775 5.1029 64.6775 5.1029L61.0472 15.1769C61.0472 15.1769 60.8455 15.7814 60.1732 15.7814H56.6773" fill="#ADADAD"/>
<path fill-rule="evenodd" clip-rule="evenodd" d="M69.4488 15.2452C69.4488 15.2452 69.6505 15.7825 69.0455 15.7825C68.4404 15.7825 62.3898 15.7825 62.3898 15.7825C62.3898 15.7825 61.7848 15.7825 61.9865 15.2452C62.1882 14.7079 65.3479 5.84278 65.3479 5.84278C65.3479 5.84278 65.6168 5.57414 65.953 5.84278C65.953 5.97711 69.3816 15.2452 69.3816 15.2452" fill="#ADADAD"/>
<path fill-rule="evenodd" clip-rule="evenodd" d="M105.28 15.7814C105.28 15.7814 104.675 15.7814 104.944 15.1769C104.944 15.0426 105.482 13.8337 105.482 13.8337L109.448 3.82685C109.448 3.82685 109.717 3.22241 110.322 3.22241H113.146C113.146 3.22241 113.885 3.22241 113.818 3.82685C113.818 3.96117 113.347 5.1029 113.347 5.1029L109.717 15.1769C109.717 15.1769 109.515 15.7814 108.843 15.7814H105.347" fill="#ADADAD"/>
<path fill-rule="evenodd" clip-rule="evenodd" d="M118.123 15.2452C118.123 15.2452 118.324 15.7825 117.719 15.7825C117.114 15.7825 111.064 15.7825 111.064 15.7825C111.064 15.7825 110.459 15.7825 110.66 15.2452C110.862 14.7079 114.022 5.84278 114.022 5.84278C114.022 5.84278 114.291 5.57414 114.627 5.84278C114.627 5.97711 118.055 15.2452 118.055 15.2452" fill="#ADADAD"/>
</svg>
