<svg width="179" height="30" viewBox="0 0 179 30" fill="none" xmlns="http://www.w3.org/2000/svg">
<mask id="mask0_5470_3640" style="mask-type:alpha" maskUnits="userSpaceOnUse" x="0" y="0" width="179" height="30">
<g clip-path="url(#clip0_5470_3640)">
<path d="M54.1581 0H29.1492C27.928 0 26.866 0.955752 26.7598 2.17699L23.8926 29.7345H27.4501C28.6713 29.7345 29.7333 28.7788 29.8395 27.5575L32.0165 6.74336C32.0696 6.15929 32.6005 5.68142 33.2377 5.68142H37.22L34.6182 29.7345H38.1758C39.397 29.7345 40.459 28.7788 40.5651 27.5575L42.8483 5.68142H47.8926L45.3439 29.7345H48.9014C50.1227 29.7345 51.1846 28.7788 51.2908 27.5575L53.574 5.68142L54.1581 0Z" fill="white"/>
<path d="M22.3009 0H5.30973C4.0885 0 3.02655 0.955752 2.92035 2.17699L2.54867 5.73451L1.53982 15.0796C1.38053 16.4071 2.33628 17.5752 3.66372 17.7345C3.76991 17.7345 3.82301 17.7345 3.9292 17.7345H13.5398C14.1239 17.7345 14.6018 18.2124 14.6018 18.7965C14.6018 18.8496 14.6018 18.8496 14.6018 18.9027L14.177 23.1504C14.1239 23.6814 13.646 24.1062 13.115 24.1062H6.31858L6.58407 21.7699H1.80531C1.27434 21.7699 0.79646 22.1947 0.743363 22.7257L0.584071 24.1062V24.3186L0 29.7345H16.9911C18.2124 29.7345 19.2743 28.8319 19.3805 27.6106L19.7522 24.0531L20.4425 17.7345L20.7611 14.708C20.9204 13.3805 19.9646 12.2124 18.6372 12.0531C18.531 12.0531 18.4779 12.0531 18.3717 12.0531H8.70796C8.12389 12.0531 7.64602 11.5752 7.64602 10.9912C7.64602 10.9381 7.64602 10.9381 7.64602 10.885L8.0708 6.79646C8.12389 6.21239 8.65487 5.73451 9.29204 5.73451H15.9823L15.7168 8.0708H20.4425C20.9734 8.0708 21.4513 7.64602 21.5044 7.11504L21.6637 5.73451L22.3009 0Z" fill="white"/>
<path d="M119.417 27.9824C119.948 28.6196 120.691 28.9912 121.541 28.9912C122.337 28.9912 122.656 28.5134 122.656 28.0886C122.656 27.6638 122.072 27.3983 121.435 27.1859C120.585 26.8673 119.523 26.4426 119.523 25.4337C119.523 24.4249 120.426 23.4691 121.912 23.4691C122.815 23.416 123.718 23.7877 124.355 24.478L123.665 25.2744C123.187 24.7435 122.496 24.4249 121.806 24.4249C121.275 24.3718 120.797 24.7435 120.744 25.2213C120.744 25.6461 121.275 25.8585 121.965 26.0709C122.868 26.3895 123.877 26.8142 123.877 27.8762C123.877 28.9381 122.974 30.0001 121.435 30.0001C120.373 30.0532 119.364 29.6284 118.727 28.8319L119.417 27.9824Z" fill="white"/>
<path d="M127.276 25.1682C128.656 25.1682 129.453 26.0178 129.453 27.239C129.506 28.7257 128.338 29.947 126.851 30.0001C125.47 30.0001 124.674 29.1505 124.674 27.9293C124.674 26.4425 125.842 25.2213 127.276 25.1682ZM127.276 26.0178C126.373 26.0178 125.736 26.9204 125.736 27.8231C125.683 28.4602 126.107 28.9912 126.745 29.0443C126.798 29.0443 126.851 29.0443 126.904 29.0443C127.807 28.9381 128.497 28.1417 128.444 27.239C128.497 26.6018 128.072 26.0709 127.435 26.0178C127.382 26.0178 127.329 26.0178 127.276 26.0178Z" fill="white"/>
<path d="M131.416 23.5222H132.425L131.044 29.8408H130.035L131.416 23.5222Z" fill="white"/>
<path d="M133.805 28.1415C133.805 28.2477 133.751 28.3539 133.751 28.4601C133.751 28.938 134.123 29.0973 134.601 29.0973C135.079 29.0442 135.504 28.8318 135.822 28.4601L136.512 25.2743H137.521L136.512 29.8407H135.504L135.663 29.2035C135.238 29.6283 134.707 29.8938 134.07 29.9469C133.22 29.9469 132.689 29.5221 132.689 28.7787C132.689 28.6725 132.689 28.5132 132.743 28.407L133.433 25.2212H134.442L133.805 28.1415Z" fill="white"/>
<path d="M138.372 28.7257L138.956 26.1239H138.213L138.425 25.2743H139.169L139.434 24H140.443L140.177 25.2743H141.133L140.921 26.1239H139.965L139.434 28.5133C139.434 28.5664 139.434 28.6195 139.434 28.6726C139.434 28.9381 139.593 29.0973 139.912 29.0973C140.071 29.0973 140.178 29.0442 140.284 28.9911L140.337 29.7876C140.124 29.9469 139.859 30 139.593 30C138.85 30 138.372 29.6814 138.372 29.0442C138.319 28.9381 138.319 28.8319 138.372 28.7257Z" fill="white"/>
<path d="M142.036 25.2743H143.045L142.036 29.8407H141.027L142.036 25.2743ZM142.886 23.2566C143.204 23.2566 143.417 23.469 143.47 23.7345C143.47 23.7345 143.47 23.7345 143.47 23.7876C143.47 24.1592 143.151 24.4778 142.78 24.4778C142.461 24.4778 142.249 24.2654 142.195 24C142.195 24 142.195 24 142.195 23.9469C142.195 23.5752 142.514 23.3097 142.886 23.2566Z" fill="white"/>
<path d="M146.23 25.1682C147.611 25.1682 148.407 26.0178 148.407 27.239C148.461 28.7257 147.292 29.947 145.806 30.0001C144.425 30.0001 143.629 29.1505 143.629 27.9293C143.576 26.4425 144.744 25.2213 146.23 25.1682ZM146.177 26.0178C145.275 26.0178 144.638 26.9204 144.638 27.8231C144.584 28.4602 145.009 28.9912 145.646 29.0443C145.699 29.0443 145.753 29.0443 145.859 29.0443C146.761 28.9381 147.452 28.1417 147.399 27.239C147.452 26.6018 147.027 26.0709 146.39 26.0178C146.284 26.0178 146.23 26.0178 146.177 26.0178Z" fill="white"/>
<path d="M152.709 26.9734C152.762 26.8672 152.762 26.761 152.762 26.7079C152.762 26.23 152.391 26.0707 151.966 26.0707C151.488 26.1238 151.01 26.3362 150.639 26.7079L149.948 29.8938H148.939L149.948 25.3274H150.957L150.798 25.9646C151.223 25.5398 151.754 25.2743 152.391 25.2212C153.24 25.2212 153.771 25.646 153.771 26.3893C153.771 26.4955 153.771 26.6548 153.718 26.761L153.028 29.9469H152.019L152.709 26.9734Z" fill="white"/>
<path d="M154.832 28.4602C155.203 28.9381 155.788 29.1505 156.425 29.2036C156.956 29.2036 157.274 28.885 157.274 28.5664C157.274 28.2479 156.849 28.0886 156.372 27.9293C155.681 27.6638 154.938 27.3983 154.938 26.6549C154.938 25.9116 155.575 25.1682 156.743 25.1682C157.434 25.1682 158.124 25.4337 158.602 25.9116L158.071 26.5487C157.699 26.1771 157.221 25.9647 156.69 25.9647C156.159 25.9647 155.894 26.1771 155.894 26.4956C155.894 26.8142 156.318 26.9204 156.796 27.0797C157.487 27.2921 158.283 27.6107 158.283 28.4072C158.283 29.2036 157.593 30.0001 156.372 30.0001C155.575 30.0532 154.832 29.7346 154.301 29.2036L154.832 28.4602Z" fill="white"/>
<path d="M121.593 11.469H122.708L121.328 17.7876H120.213L121.593 11.469Z" fill="white"/>
<path d="M126.424 14.9204C126.477 14.8142 126.477 14.708 126.477 14.6549C126.477 14.1771 126.105 14.0178 125.734 14.0178C125.256 14.0709 124.778 14.2833 124.406 14.6549L123.716 17.8408H122.707L123.716 13.2744H124.725L124.565 13.9116C124.99 13.4868 125.521 13.2213 126.105 13.1682C126.955 13.1682 127.486 13.593 127.486 14.3364C127.486 14.4425 127.486 14.6018 127.433 14.708L126.742 17.8939H125.734L126.424 14.9204Z" fill="white"/>
<path d="M129.238 14.0709H128.495L128.707 13.1682H129.451L129.504 12.9027C129.716 11.8939 130.247 11.3098 131.15 11.3098C131.468 11.3098 131.787 11.3629 132.105 11.5753L131.734 12.2656C131.575 12.1594 131.415 12.1063 131.256 12.1063C130.831 12.1063 130.619 12.3718 130.513 12.9027L130.459 13.1682H131.415L131.203 14.0178H130.247L129.398 17.7346H128.389L129.238 14.0709Z" fill="white"/>
<path d="M132.212 13.2212H133.221L133.062 13.8584C133.487 13.3805 134.071 13.115 134.708 13.115L134.496 14.1238C134.336 14.0707 134.23 14.0707 134.071 14.0707C133.593 14.1238 133.168 14.3362 132.85 14.7079L132.159 17.7876H131.15L132.212 13.2212Z" fill="white"/>
<path d="M138.85 13.2212H139.859L138.85 17.7876H137.841L138 17.2035C137.682 17.6283 137.151 17.9468 136.567 17.9468C135.505 17.9468 134.814 17.2566 134.814 16.0353C134.814 14.6017 135.717 13.115 137.204 13.115C137.788 13.115 138.372 13.3805 138.744 13.9115L138.85 13.2212ZM136.938 17.0442C137.416 17.0442 137.841 16.7787 138.16 16.407L138.584 14.6548C138.319 14.23 137.841 14.0176 137.363 14.0176C136.46 14.0176 135.823 14.9203 135.823 15.8761C135.77 16.4601 136.195 17.0442 136.832 17.0973C136.832 17.0442 136.885 17.0442 136.938 17.0442Z" fill="white"/>
<path d="M140.601 16.407C140.973 16.8849 141.557 17.0973 142.194 17.1504C142.725 17.1504 143.044 16.8849 143.044 16.5132C143.044 16.1415 142.619 16.0353 142.141 15.8761C141.451 15.6106 140.707 15.3451 140.707 14.6017C140.707 13.8584 141.345 13.115 142.513 13.115C143.203 13.115 143.893 13.3805 144.371 13.8584L143.84 14.4955C143.522 14.1238 142.991 13.8584 142.46 13.8584C141.929 13.8584 141.663 14.1238 141.663 14.3893C141.663 14.6548 142.088 14.8141 142.566 14.9734C143.256 15.2389 144.053 15.5044 144.053 16.3008C144.053 17.0973 143.362 17.8938 142.141 17.8938C141.345 17.9468 140.601 17.6283 140.07 17.0973L140.601 16.407Z" fill="white"/>
<path d="M145.22 16.6727L145.804 14.0709H145.061L145.273 13.2214H146.069L146.335 11.947H147.344L147.078 13.2214H148.034L147.822 14.0709H146.866L146.335 16.4603C146.335 16.5134 146.335 16.5665 146.335 16.6196C146.335 16.8851 146.494 17.0444 146.813 17.0444C146.972 17.0444 147.078 16.9913 147.184 16.9382L147.238 17.7346C147.025 17.8939 146.76 17.947 146.494 17.947C145.751 17.947 145.273 17.6284 145.273 16.9913C145.22 16.8851 145.22 16.7789 145.22 16.6727Z" fill="white"/>
<path d="M148.939 13.2212H149.948L149.788 13.8584C150.213 13.3805 150.797 13.115 151.434 13.115L151.222 14.1238C151.063 14.0707 150.957 14.0707 150.797 14.0707C150.319 14.1238 149.895 14.3362 149.576 14.7079L148.886 17.7876H147.877L148.939 13.2212Z" fill="white"/>
<path d="M152.654 16.0886C152.654 16.1948 152.601 16.301 152.601 16.4072C152.601 16.885 152.973 17.0443 153.451 17.0443C153.928 16.9912 154.353 16.7788 154.672 16.4072L155.362 13.2213H156.371L155.362 17.7877H154.353L154.513 17.1505C154.088 17.5753 153.504 17.8408 152.92 17.8939C152.07 17.8939 151.539 17.4691 151.539 16.7257C151.539 16.6195 151.539 16.4602 151.592 16.3541L152.282 13.1682H153.291L152.654 16.0886Z" fill="white"/>
<path d="M159.557 13.1151C160.3 13.062 160.99 13.3806 161.415 14.0177L160.672 14.6018C160.459 14.2301 160.035 14.0177 159.61 14.0177C158.654 14.0708 157.964 14.8142 157.964 15.77V15.823C157.911 16.4602 158.442 16.9912 159.079 17.0443C159.132 17.0443 159.185 17.0443 159.238 17.0443C159.663 17.0443 160.035 16.885 160.3 16.5664L160.831 17.2567C160.406 17.7346 159.769 18 159.132 18C157.804 18 156.955 17.2036 156.955 15.9292C156.902 14.4425 158.07 13.2213 159.504 13.1682C159.557 13.1151 159.557 13.1151 159.557 13.1151Z" fill="white"/>
<path d="M162.052 16.6727L162.636 14.0709H161.893L162.105 13.2214H162.848L163.114 11.947H164.123L163.857 13.2214H164.813L164.601 14.0709H163.645L163.114 16.4603C163.114 16.5134 163.114 16.5665 163.114 16.6196C163.114 16.8851 163.273 17.0444 163.592 17.0444C163.751 17.0444 163.857 16.9913 163.963 16.9382L164.016 17.7346C163.804 17.8939 163.539 17.947 163.273 17.947C162.53 17.947 162.052 17.6284 162.052 16.9913C161.999 16.8851 161.999 16.7789 162.052 16.6727Z" fill="white"/>
<path d="M166.088 16.0886C166.088 16.1948 166.035 16.301 166.035 16.4072C166.035 16.885 166.406 17.0443 166.884 17.0443C167.362 16.9912 167.787 16.7788 168.105 16.4072L168.796 13.2213H169.805L168.796 17.7877H167.787L167.946 17.1505C167.521 17.5753 166.99 17.8408 166.353 17.8939C165.504 17.8939 164.973 17.4691 164.973 16.7257C164.973 16.6195 164.973 16.4602 165.026 16.3541L165.716 13.1682H166.725L166.088 16.0886Z" fill="white"/>
<path d="M171.187 13.2212H172.195L172.036 13.8584C172.461 13.3805 173.098 13.115 173.735 13.115L173.523 14.1238C173.364 14.0707 173.257 14.0707 173.098 14.0707C172.62 14.1238 172.195 14.3362 171.877 14.7079L171.187 17.7876H170.178L171.187 13.2212Z" fill="white"/>
<path d="M176.389 13.1151C177.451 13.062 178.354 13.8584 178.407 14.9204C178.407 14.9735 178.407 15.0797 178.407 15.1328C178.407 15.3451 178.354 15.6106 178.301 15.823H174.743V15.9823C174.743 16.5133 175.221 17.0974 176.124 17.0974C176.549 17.0974 176.973 16.9912 177.345 16.7257L177.664 17.4159C177.186 17.7345 176.655 17.8938 176.071 17.9469C174.637 17.9469 173.734 17.1505 173.734 15.8761C173.734 14.3894 174.849 13.1682 176.389 13.1151ZM177.504 14.9735C177.504 14.3894 177.026 13.9115 176.442 13.9115C176.389 13.9115 176.336 13.9115 176.283 13.9115C175.593 13.9115 175.009 14.4425 174.849 15.1328H177.504C177.504 15.0797 177.504 15.0266 177.504 14.9735Z" fill="white"/>
<path d="M121.167 4.24772C121.698 4.83179 122.495 5.20348 123.291 5.15038C124.088 5.15038 124.459 4.7256 124.459 4.35392C124.459 3.98224 123.875 3.76985 123.238 3.50436C122.388 3.18578 121.38 2.8141 121.38 1.91144C121.38 1.00879 122.335 0.159228 123.769 0.212326C124.672 0.212326 125.521 0.53091 126.158 1.16808L125.415 1.85834C124.937 1.38047 124.247 1.11498 123.557 1.11498C122.972 1.11498 122.495 1.43356 122.495 1.80525C122.495 2.17693 123.026 2.33622 123.663 2.60171C124.512 2.92029 125.574 3.29197 125.574 4.24772C125.574 5.20348 124.672 6.10613 123.132 6.05303C122.123 6.10613 121.114 5.73445 120.424 4.99109L121.167 4.24772Z" fill="white"/>
<path d="M132.903 1.69902L129.77 6.053H129.292L128.549 1.59282L127.381 5.9999H126.266L127.752 0.371582H129.292L129.982 4.35388L132.744 0.424679L134.336 0.477777L132.85 6.053H131.735L132.903 1.69902Z" fill="white"/>
<path d="M138.317 0.477783C139.751 0.530881 140.654 1.16805 141.025 2.01761L139.963 2.33619C139.645 1.69902 138.954 1.32734 138.264 1.38044C136.937 1.32734 135.822 2.38929 135.822 3.71672C135.822 4.72557 136.565 5.41584 137.733 5.41584C138.317 5.41584 138.901 5.20345 139.326 4.83177L140.176 5.36274C139.485 5.99991 138.583 6.37159 137.68 6.31849C135.981 6.31849 134.654 5.30964 134.707 3.76982C134.707 1.75212 136.459 0.477783 138.317 0.477783Z" fill="white"/>
<path d="M89.1506 0H83.4692L82.832 5.84071C84.7435 4.30088 86.7612 2.97345 88.9382 1.80531L89.1506 0Z" fill="white"/>
<path d="M83.8404 29.7346C85.0616 29.7346 86.1235 28.7789 86.2297 27.5576L88.566 5.52222C86.1766 7.22133 84.0527 9.23903 82.2474 11.5222L80.3359 29.6815L83.8404 29.7346Z" fill="white"/>
<path d="M78.7431 0H61.0617C59.8404 0 58.7785 0.955752 58.6723 2.17699L58.3006 5.73451L56.336 24.1062L55.752 29.7876H73.4334C74.6546 29.7876 75.7166 28.8319 75.8228 27.6106L76.1944 24.0531L76.3006 22.8319C76.3537 22.2478 75.9289 21.7168 75.3449 21.6637C75.2918 21.6637 75.2918 21.6637 75.2387 21.6637H70.7254L70.4599 24.0531H61.9643L63.8227 6.58407C63.8758 6.0531 64.3537 5.62832 64.8847 5.62832H72.4245L72.2121 7.9646H76.9378C77.4688 7.9646 77.9466 7.53982 77.9997 7.00885L78.159 5.62832L78.7431 0Z" fill="white"/>
<path d="M112.99 0H95.9992C94.7779 0 93.716 0.955752 93.6098 2.17699L93.2381 5.73451L92.2293 15.0796C92.07 16.4071 93.0788 17.5752 94.4063 17.7345C94.5125 17.7345 94.5656 17.7345 94.6718 17.7345H104.282C104.866 17.7345 105.344 18.2124 105.344 18.7965C105.344 18.8496 105.344 18.8496 105.344 18.9027L104.92 23.1504C104.866 23.6814 104.389 24.1062 103.858 24.1062H97.008L97.2735 21.7699H92.5479C92.0169 21.7699 91.539 22.1947 91.4859 22.7257L91.3266 24.1062V24.3186L90.6895 29.7345H107.681C108.902 29.7345 109.964 28.8319 110.07 27.6106L110.442 24.0531L111.132 17.7345L111.451 14.708C111.61 13.3805 110.654 12.2124 109.327 12.0531C109.22 12.0531 109.167 12.0531 109.061 12.0531H99.4505C98.8664 12.0531 98.3886 11.5752 98.3886 10.9912C98.3886 10.9381 98.3886 10.9381 98.3886 10.885L98.8133 6.79646C98.8664 6.21239 99.3974 5.73451 100.035 5.73451H106.725L106.459 8.0708H111.185C111.716 8.0708 112.194 7.64602 112.247 7.11504L112.406 5.73451L112.99 0Z" fill="white"/>
</g>
</mask>
<g mask="url(#mask0_5470_3640)">
<rect y="-6.37158" width="178.407" height="36.6372" fill="#ADADAD"/>
</g>
<defs>
<clipPath id="clip0_5470_3640">
<rect width="178.407" height="30" fill="white"/>
</clipPath>
</defs>
</svg>
