<svg width="153" height="32" viewBox="0 0 153 32" fill="none" xmlns="http://www.w3.org/2000/svg">
<path d="M145.493 21.0344C145.493 20.3225 146.011 19.8047 146.788 19.8047C147.564 19.8047 148.082 20.3225 148.082 21.0344C148.082 21.7463 147.564 22.2641 146.788 22.2641C146.011 22.2641 145.493 21.7463 145.493 21.0344Z" fill="white"/>
<path d="M129.377 27.3131V28.9311C129.377 28.9311 129.377 29.0606 129.248 29.0606H127.824C127.824 29.0606 127.694 29.0606 127.694 28.9311V27.3131L126.012 24.4654C126.012 24.4007 126.012 24.3359 126.076 24.3359H127.565H127.63L128.471 25.8245C128.471 25.8245 128.601 25.8245 128.665 25.8245L129.507 24.3359C129.507 24.3359 129.507 24.3359 129.571 24.3359H130.931C130.995 24.3359 131.06 24.4007 130.995 24.4654L129.312 27.3131H129.377Z" fill="white"/>
<path d="M135.202 28.0246V28.866C135.202 28.866 135.202 28.9307 135.137 28.9307H131.513C131.513 28.9307 131.448 28.9307 131.448 28.866V24.2708C131.448 24.2708 131.448 24.2061 131.513 24.2061H135.073C135.073 24.2061 135.137 24.2061 135.137 24.2708V25.1121C135.137 25.1121 135.137 25.1769 135.073 25.1769H132.872C132.872 25.1769 132.807 25.1769 132.807 25.2416V25.8888C132.807 25.8888 132.807 25.9535 132.872 25.9535H134.814C134.814 25.9535 134.878 25.9535 134.878 26.0182V26.8596C134.878 26.8596 134.878 26.9243 134.814 26.9243H132.872C132.872 26.9243 132.807 26.9243 132.807 26.989V27.701C132.807 27.701 132.807 27.7657 132.872 27.7657H135.202C135.202 27.7657 135.267 27.7657 135.267 27.8304L135.202 28.0246Z" fill="white"/>
<path d="M139.086 28.0893H137.209H137.144L136.82 28.9307C136.82 28.9307 136.82 28.9307 136.756 28.9307H135.591C135.591 28.9307 135.461 28.866 135.526 28.8012L137.532 24.2061C137.532 24.2061 137.532 24.2061 137.597 24.2061H138.827H138.891L140.898 28.8012C140.898 28.8012 140.898 28.9307 140.833 28.9307H139.603H139.539L139.215 28.0893C139.215 28.0893 139.215 28.0893 139.15 28.0893H139.086ZM138.697 26.9243L138.244 25.7594C138.244 25.6946 138.115 25.6946 138.05 25.7594L137.597 26.9243C137.597 26.9243 137.597 27.0538 137.662 27.0538H138.633C138.633 27.0538 138.762 27.0538 138.697 26.9243Z" fill="white"/>
<path d="M143.357 27.701H142.774C142.774 27.701 142.709 27.701 142.709 27.7657V28.866C142.709 28.866 142.709 28.9307 142.645 28.9307H141.48C141.48 28.9307 141.415 28.9307 141.415 28.866V24.2708C141.415 24.2708 141.415 24.2061 141.48 24.2061H143.551C144.845 24.2061 145.687 24.8533 145.687 25.9535C145.687 27.0538 145.363 27.1185 144.845 27.4421C144.845 27.4421 144.845 27.5068 144.845 27.5715L145.751 28.866C145.751 28.866 145.751 28.9954 145.687 28.9954H144.457C144.457 28.9954 144.457 28.9954 144.392 28.9954L143.551 27.8304C143.551 27.8304 143.551 27.8304 143.486 27.8304L143.357 27.701ZM143.421 25.3063H142.774C142.774 25.3063 142.709 25.3063 142.709 25.371V26.6007C142.709 26.6007 142.709 26.6654 142.774 26.6654H143.421C144.004 26.6654 144.263 26.4066 144.263 25.9535C144.263 25.5005 144.004 25.2416 143.421 25.2416V25.3063Z" fill="white"/>
<path fill-rule="evenodd" clip-rule="evenodd" d="M129.377 12.0378C130.413 12.0378 131.448 12.2967 132.354 12.8792C132.613 13.0733 132.808 13.2675 133.066 13.4617C133.714 14.1089 134.231 14.9503 134.426 15.9211C134.555 16.8919 135.008 17.7332 135.72 18.4452C136.561 19.2865 137.726 19.8043 138.956 19.8043C140.186 19.8043 141.351 19.3513 142.192 18.4452C143.033 17.6038 143.551 16.4388 143.551 15.2091C143.551 13.9794 143.098 12.8145 142.192 11.9731C141.351 11.1317 140.186 10.614 138.956 10.614C137.726 10.614 136.561 11.067 135.72 11.9731C135.137 12.5556 134.684 13.3322 134.49 14.1736C134.037 13.397 133.39 12.685 132.549 12.232C132.872 11.52 133.39 10.8081 133.972 10.2256C135.332 8.86649 137.079 8.15456 138.956 8.15456C140.833 8.15456 142.645 8.86649 143.939 10.2256C145.299 11.5848 146.011 13.3322 146.011 15.2091C146.011 17.086 145.299 18.8982 143.939 20.1926C142.58 21.5518 140.833 22.2637 138.956 22.2637C137.079 22.2637 135.267 21.5518 133.972 20.1926C133.002 19.2218 132.29 17.9274 132.031 16.5683C131.901 16.0505 131.707 15.5975 131.319 15.2739C130.283 14.2383 128.536 14.2383 127.565 15.2739C127.5 15.3386 127.371 15.468 127.306 15.5975C127.306 15.6622 127.242 15.7269 127.177 15.7916C126.918 16.2447 126.853 16.6977 126.853 17.1508C126.853 17.8627 127.112 18.5099 127.63 18.9629C128.665 19.9985 130.413 19.9985 131.384 18.9629C132.354 17.9274 131.772 18.4452 131.901 18.1863C132.16 19.0924 132.678 19.869 133.39 20.4515C133.325 20.5162 133.196 20.6457 133.131 20.7104C131.125 22.7167 127.824 22.7167 125.818 20.7104C124.847 19.7396 124.329 18.5099 124.329 17.1508C124.329 16.2447 124.523 15.3386 124.976 14.5619L128.73 8.08984H131.578L129.313 11.9731L129.377 12.0378Z" fill="url(#paint0_linear_4363_8826)"/>
<path fill-rule="evenodd" clip-rule="evenodd" d="M5.56615 15.2092C5.56615 15.2092 4.91895 15.2092 4.91895 14.6267V3.68893C4.91895 3.68893 4.91895 3.10645 5.56615 3.10645H9.90245C9.90245 3.10645 12.1677 3.10645 14.174 3.94782C14.3682 4.01254 15.9215 4.72447 16.7629 6.34249C16.8276 6.47193 17.4748 7.57218 17.4748 9.38436C17.4748 9.51381 17.4748 11.0024 16.8276 12.1674C16.8276 12.1674 16.1156 13.4618 14.8212 14.2384C14.6918 14.3031 13.3974 15.2092 11.1969 15.2092C11.0027 15.2092 5.63087 15.2092 5.63087 15.2092M11.7146 11.1965C12.7502 10.6141 12.6854 9.38436 12.7502 9.31964C12.7502 7.96051 11.9735 7.50746 11.9088 7.44274C11.1321 6.92497 9.96717 6.92497 9.96717 6.92497C9.70829 6.92497 9.70829 7.18386 9.70829 7.18386V11.3907C9.70829 11.5849 9.96717 11.5849 9.96717 11.5849C11.2616 11.5849 11.7146 11.2613 11.7794 11.1965" fill="white"/>
<path fill-rule="evenodd" clip-rule="evenodd" d="M31.0664 3.68893C31.0664 3.68893 31.0664 3.10645 31.7136 3.10645H35.2085C35.2085 3.10645 35.8557 3.10645 35.8557 3.68893V10.7435C35.8557 10.7435 35.8557 11.326 36.503 11.326H39.2212C39.2212 11.326 39.8684 11.326 39.8684 11.9085V14.6267C39.8684 14.6267 39.8684 15.2092 39.2212 15.2092H31.7783C31.7783 15.2092 31.1311 15.2092 31.1311 14.6267V3.68893H31.0664Z" fill="white"/>
<path fill-rule="evenodd" clip-rule="evenodd" d="M53.7835 8.09022H47.7645C47.182 8.09022 47.1173 8.6727 47.1173 8.6727V10.9379H48.9942C49.1883 10.9379 49.1236 11.1321 49.1236 11.1968C48.5411 12.0382 47.3114 12.0382 47.182 12.0382C45.8876 12.0382 45.3051 10.9379 45.2404 10.8732C44.852 10.1613 44.852 9.38463 44.852 9.31991C44.9167 8.15494 45.564 7.50773 45.6287 7.44301C46.47 6.66636 47.3761 6.73108 47.4409 6.73108C48.2822 6.73108 48.8 7.18412 48.8647 7.24885C49.1883 7.63717 49.7708 7.44301 49.7708 7.44301C49.7708 7.44301 53.4599 6.14859 53.5893 6.14859C53.0069 4.85418 51.3241 4.07753 51.2594 4.0128C50.3533 3.55976 49.4472 3.3656 49.3178 3.30088C48.2175 3.04199 47.182 3.04199 46.9878 3.04199C45.8228 3.04199 44.9167 3.30088 44.7873 3.3656C43.234 3.75392 42.1338 4.72473 42.0043 4.85418C41.0335 5.76027 40.6452 6.73108 40.5805 6.86052C39.998 8.15494 40.0627 9.44935 40.0627 9.57879C40.0627 10.7438 40.3863 11.4557 40.451 11.5851C40.9041 12.7501 41.7454 13.5915 41.8749 13.6562C43.0398 14.6917 44.2695 15.0801 44.4637 15.0801C45.9523 15.5331 47.3114 15.4684 47.4409 15.4684C49.1236 15.4684 50.418 14.8212 50.5475 14.7565C51.4535 14.3681 52.2302 13.7209 52.3596 13.6562C53.0716 13.0737 53.5246 12.2971 53.5893 12.1676C54.1718 11.0674 54.2365 9.77296 54.2365 9.77296V8.73742C54.2365 8.80215 54.2365 8.15494 53.6541 8.15494" fill="white"/>
<path fill-rule="evenodd" clip-rule="evenodd" d="M80.1243 3.10645C80.1243 3.10645 80.5773 3.30061 80.3184 3.68893C80.2537 3.81837 76.8882 8.67244 76.8882 8.67244C76.8882 8.67244 76.6294 8.93132 76.8882 9.25492C76.8882 9.31964 80.7715 14.6267 80.7715 14.6267C80.7715 14.6267 81.1598 15.2092 80.5773 15.2092H76.241C76.241 15.2092 75.7233 15.2092 75.3349 14.6267C75.2702 14.4973 72.6814 10.161 72.6814 10.161C72.6814 10.161 72.6814 10.0963 72.5519 10.161V14.6267C72.6167 14.6267 72.6167 15.2092 72.0342 15.2092H68.6687C68.6687 15.2092 68.0215 15.2092 68.0215 14.6267V3.68893C68.0215 3.68893 68.0215 3.10645 68.6687 3.10645H72.0342C72.0342 3.10645 72.6167 3.10645 72.6167 3.68893C72.6167 3.88309 72.5519 8.28411 72.5519 8.28411C72.5519 8.28411 72.6167 8.41355 72.6814 8.28411C72.6814 8.21939 73.5875 6.53665 73.5875 6.53665L75.2702 3.68893C75.2702 3.68893 75.6585 3.10645 76.241 3.10645H80.1243Z" fill="white"/>
<path fill-rule="evenodd" clip-rule="evenodd" d="M86.0787 15.2092C86.0787 15.2092 86.7259 15.2092 86.7259 14.6267V3.68893C86.7259 3.68893 86.7259 3.10645 86.0787 3.10645H82.5837C82.5837 3.10645 81.9365 3.10645 81.9365 3.68893V14.6267C81.9365 14.6267 81.9365 15.2092 82.5837 15.2092H86.0787Z" fill="white"/>
<path fill-rule="evenodd" clip-rule="evenodd" d="M89.1211 3.10645H94.2341C94.2341 3.10645 96.1757 3.10645 97.5348 3.81837C97.6643 3.81837 98.6998 4.40086 99.1528 5.43639C99.1528 5.50112 99.5412 6.27777 99.5412 7.3133C99.5412 7.37802 99.5412 8.28411 99.2176 8.8666C99.2176 8.99604 98.7645 9.90213 97.1465 10.4199C97.1465 10.4199 96.9523 10.4199 97.0818 10.6141C97.0818 10.6141 97.5995 10.9377 97.8584 11.326L100.253 14.6267C100.253 14.6267 100.771 15.274 100.059 15.2092H95.8521C95.8521 15.2092 95.2049 15.2092 94.946 14.6267C94.946 14.4973 93.1985 11.3907 93.1985 11.3907H93.0691V14.6267C93.0691 14.6267 93.0691 15.2092 92.4219 15.2092H89.0564C89.0564 15.2092 88.4092 15.2092 88.4092 14.6267V3.68893C88.4092 3.68893 88.4092 3.10645 89.0564 3.10645M93.1338 8.34883C93.1338 8.47827 93.3927 8.47827 93.3927 8.47827H93.5868C94.1693 8.47827 94.4282 8.34883 94.4929 8.34883C94.8165 8.21939 94.946 7.96051 94.946 7.96051C95.0107 7.76634 95.0107 7.44274 95.0107 7.44274C95.0107 7.11914 94.8165 6.86025 94.8165 6.86025C94.6871 6.66609 94.3635 6.53665 94.3635 6.53665C94.0399 6.40721 93.3927 6.47193 93.2632 6.47193C93.1338 6.47193 93.1338 6.60137 93.1338 6.60137V8.41355V8.34883Z" fill="white"/>
<path fill-rule="evenodd" clip-rule="evenodd" d="M123.034 9.06076C120.898 5.82472 119.604 3.49477 119.604 3.49477C119.604 3.43005 119.475 3.30061 119.345 3.23589C119.216 3.17117 119.086 3.10645 118.957 3.10645C117.727 3.10645 116.562 3.10645 115.332 3.10645C114.75 3.10645 114.75 3.68893 114.75 3.68893V14.6267C114.75 15.2092 115.332 15.2092 115.332 15.2092H118.633C119.216 15.2092 119.216 14.6267 119.216 14.6267V9.38436C119.216 9.38436 119.216 9.25492 119.41 9.38436C119.41 9.38436 122.452 14.0443 122.84 14.6267C123.228 15.2092 123.746 15.2092 123.746 15.2092C125.105 12.8793 126.529 10.4846 127.888 8.15467C127.888 6.66609 127.759 5.17751 127.759 3.68893C127.759 3.10645 127.112 3.10645 127.112 3.10645H123.746C123.228 3.10645 123.228 3.68893 123.228 3.68893V9.06076C123.228 9.06076 123.228 9.12548 123.099 9.12548C123.099 9.12548 123.034 9.12548 122.97 9.06076H123.034Z" fill="white"/>
<path fill-rule="evenodd" clip-rule="evenodd" d="M17.345 15.2092C17.345 15.2092 16.7625 15.2092 17.0214 14.6267C17.0214 14.4973 17.5392 13.3323 17.5392 13.3323L21.3577 3.68893C21.3577 3.68893 21.6166 3.10645 22.1991 3.10645H24.9173C24.9173 3.10645 25.6293 3.10645 25.5646 3.68893C25.5646 3.81837 25.1115 4.91863 25.1115 4.91863L21.6166 14.6267C21.6166 14.6267 21.4224 15.2092 20.7752 15.2092H17.4097" fill="white"/>
<path fill-rule="evenodd" clip-rule="evenodd" d="M29.707 14.6916C29.707 14.6916 29.9012 15.2094 29.3187 15.2094C28.7362 15.2094 22.9113 15.2094 22.9113 15.2094C22.9113 15.2094 22.3289 15.2094 22.523 14.6916C22.7172 14.1738 25.7591 5.63068 25.7591 5.63068C25.7591 5.63068 26.0179 5.3718 26.3416 5.63068C26.3416 5.76013 29.6423 14.6916 29.6423 14.6916" fill="#E2161B"/>
<path fill-rule="evenodd" clip-rule="evenodd" d="M54.4954 15.2092C54.4954 15.2092 53.9129 15.2092 54.1718 14.6267C54.1718 14.4973 54.6896 13.3323 54.6896 13.3323L58.5081 3.68893C58.5081 3.68893 58.767 3.10645 59.3495 3.10645H62.0677C62.0677 3.10645 62.7797 3.10645 62.7149 3.68893C62.7149 3.81837 62.2619 4.91863 62.2619 4.91863L58.767 14.6267C58.767 14.6267 58.5728 15.2092 57.9256 15.2092H54.5601" fill="white"/>
<path fill-rule="evenodd" clip-rule="evenodd" d="M66.8565 14.6916C66.8565 14.6916 67.0506 15.2094 66.4681 15.2094C65.8856 15.2094 60.0608 15.2094 60.0608 15.2094C60.0608 15.2094 59.4783 15.2094 59.6724 14.6916C59.8666 14.1738 62.9085 5.63068 62.9085 5.63068C62.9085 5.63068 63.1674 5.3718 63.491 5.63068C63.491 5.76013 66.7917 14.6916 66.7917 14.6916" fill="#E2161B"/>
<path fill-rule="evenodd" clip-rule="evenodd" d="M101.353 15.2092C101.353 15.2092 100.77 15.2092 101.029 14.6267C101.029 14.4973 101.547 13.3323 101.547 13.3323L105.366 3.68893C105.366 3.68893 105.624 3.10645 106.207 3.10645H108.925C108.925 3.10645 109.637 3.10645 109.572 3.68893C109.572 3.81837 109.119 4.91863 109.119 4.91863L105.624 14.6267C105.624 14.6267 105.43 15.2092 104.783 15.2092H101.418" fill="white"/>
<path fill-rule="evenodd" clip-rule="evenodd" d="M113.715 14.6916C113.715 14.6916 113.909 15.2094 113.327 15.2094C112.744 15.2094 106.919 15.2094 106.919 15.2094C106.919 15.2094 106.337 15.2094 106.531 14.6916C106.725 14.1738 109.767 5.63068 109.767 5.63068C109.767 5.63068 110.026 5.3718 110.349 5.63068C110.349 5.76013 113.65 14.6916 113.65 14.6916" fill="#E2161B"/>
<defs>
<linearGradient id="paint0_linear_4363_8826" x1="124.329" y1="15.2091" x2="146.075" y2="15.2091" gradientUnits="userSpaceOnUse">
<stop stop-color="#E30B13"/>
<stop offset="0.1" stop-color="#DD0B13"/>
<stop offset="0.2" stop-color="#CF0D14"/>
<stop offset="0.3" stop-color="#951619"/>
<stop offset="0.4" stop-color="#6A1C1D"/>
<stop offset="0.5" stop-color="#292623"/>
<stop offset="1" stop-color="#1D1D1B"/>
</linearGradient>
</defs>
</svg>
